<?xml version="1.0" encoding="UTF-8"?>
<svg version="1.1" xmlns="http://www.w3.org/2000/svg" width="470" height="470">
<path d="M0 0 C155.1 0 310.2 0 470 0 C470 155.1 470 310.2 470 470 C314.9 470 159.8 470 0 470 C0 314.9 0 159.8 0 0 Z " fill="#19648D" transform="translate(0,0)"/>
<path d="M0 0 C1.19206055 -0.01160156 1.19206055 -0.01160156 2.40820312 -0.0234375 C9.99500546 0.0012551 16.9024121 1.63701502 24.125 3.875 C24.97191406 4.13539062 25.81882812 4.39578125 26.69140625 4.6640625 C27.61759766 4.95410156 27.61759766 4.95410156 28.5625 5.25 C28.5625 5.91 28.5625 6.57 28.5625 7.25 C29.88314453 7.63285156 29.88314453 7.63285156 31.23046875 8.0234375 C44.45862369 12.89288727 55.174671 25.41391003 63.5625 36.25 C64.33980469 37.23484375 65.11710938 38.2196875 65.91796875 39.234375 C72.67238238 47.96872563 77.96055319 56.80435424 81.5625 67.25 C82.22316719 68.91905395 82.88688252 70.5869416 83.5625 72.25 C86.8625 72.25 90.1625 72.25 93.5625 72.25 C93.5872345 76.32510438 93.60537637 80.40017964 93.61743164 84.4753418 C93.62245777 85.86141725 93.62927966 87.24748741 93.63793945 88.63354492 C93.65008018 90.62676715 93.65521021 92.62002819 93.66015625 94.61328125 C93.66539307 95.81251221 93.67062988 97.01174316 93.67602539 98.24731445 C93.5625 101.25 93.5625 101.25 92.5625 104.25 C92.69692505 106.77805814 93.00911143 109.2639668 93.30859375 111.77734375 C95.35387599 139.75051159 92.83644134 171.29812014 82.60107422 197.49560547 C81.43036967 200.60042181 80.36948216 203.73229561 79.31640625 206.87890625 C78.93178223 208.00893066 78.5471582 209.13895508 78.15087891 210.30322266 C77.40007869 212.51102763 76.66090194 214.72282965 75.93505859 216.93896484 C73.77980881 223.13172248 72.08278165 226.62549929 66.5625 230.25 C65.87285156 230.76046875 65.18320313 231.2709375 64.47265625 231.796875 C63.86292969 232.19390625 63.25320312 232.5909375 62.625 233 C61.71427734 233.61101562 61.71427734 233.61101562 60.78515625 234.234375 C57.78576795 235.6049215 54.81666969 235.82736214 51.5625 236.25 C51.56342179 237.14067389 51.56434359 238.03134779 51.56529331 238.9490118 C51.58734631 260.5884672 51.60391046 282.22792066 51.61431217 303.86738491 C51.61947564 314.33192281 51.62651929 324.79645323 51.63793945 335.26098633 C51.64788476 344.37839435 51.65435306 353.49579696 51.65658849 362.61321026 C51.65789586 367.44393876 51.66098336 372.27465175 51.66823006 377.10537529 C51.67498785 381.64673687 51.67711746 386.18807647 51.67560768 390.7294426 C51.67588412 392.40124569 51.67789066 394.07304948 51.68170547 395.74484825 C51.68663898 398.01725853 51.68549958 400.28958446 51.68275452 402.56199646 C51.68413721 404.47425601 51.68413721 404.47425601 51.68554783 406.42514706 C51.5625 409.25 51.5625 409.25 50.5625 410.25 C48.19048453 410.37486954 45.84609657 410.43600052 43.47241211 410.45532227 C42.73099472 410.46522186 41.98957733 410.47512146 41.22569275 410.48532104 C38.76377607 410.51702466 36.30184007 410.54172826 33.83984375 410.56640625 C32.13732895 410.58696814 30.43481935 410.6079644 28.73231506 410.62937927 C24.24262691 410.68467899 19.75289208 410.73405328 15.26312256 410.78222656 C10.68513822 410.83238406 6.10722197 410.88810008 1.52929688 410.94335938 C-7.45957951 411.05103753 -16.44851346 411.1519475 -25.4375 411.25 C-25.7675 402.01 -26.0975 392.77 -26.4375 383.25 C-26.7675 383.25 -27.0975 383.25 -27.4375 383.25 C-27.4375 379.95 -27.4375 376.65 -27.4375 373.25 C-26.4475 373.25 -25.4575 373.25 -24.4375 373.25 C-24.54558747 363.93916471 -24.65833235 354.62840034 -24.77683926 345.3176918 C-24.83173867 340.99323063 -24.88510138 336.66876243 -24.93481445 332.34423828 C-24.9829502 328.16204405 -25.03530238 323.97992097 -25.09044075 319.79781342 C-25.11064398 318.21124826 -25.12938977 316.62466378 -25.14657402 315.03806305 C-25.23562977 306.90352621 -25.42366175 298.83074336 -26.24169922 290.7286377 C-26.53990491 286.95365848 -26.31870119 283.26580252 -26 279.5 C-25.94779297 278.79101562 -25.89558594 278.08203125 -25.84179688 277.3515625 C-25.71535928 275.65040219 -25.57773491 273.95007854 -25.4375 272.25 C-26.0975 272.25 -26.7575 272.25 -27.4375 272.25 C-27.1590625 270.6103125 -27.1590625 270.6103125 -26.875 268.9375 C-26.1796932 265.31375867 -26.1796932 265.31375867 -27.4375 262.25 C-26.7775 262.25 -26.1175 262.25 -25.4375 262.25 C-25.4375 258.29 -25.4375 254.33 -25.4375 250.25 C-29.3975 251.24 -29.3975 251.24 -33.4375 252.25 C-33.4375 251.59 -33.4375 250.93 -33.4375 250.25 C-38.0575 250.25 -42.6775 250.25 -47.4375 250.25 C-48.4375 247.25 -48.4375 247.25 -49.4375 243.25 C-60.6575 243.25 -71.8775 243.25 -83.4375 243.25 C-83.66368572 220.56148479 -83.84770402 197.87388961 -83.95562172 175.18453121 C-84.00707315 164.64824347 -84.0771539 154.11270861 -84.19189453 143.5769043 C-84.29191521 134.38830664 -84.35616392 125.20025449 -84.37838495 116.01112753 C-84.39136438 111.15020862 -84.4216222 106.29084958 -84.49480057 101.43043327 C-84.56328455 96.84413819 -84.58349736 92.26002715 -84.56857681 87.67326927 C-84.57130138 86.00077643 -84.59083702 84.32820148 -84.62955475 82.65615463 C-84.91599496 69.6342308 -81.38064069 62.42353078 -73.4375 52.25 C-72.49490597 50.76512761 -71.57047754 49.2677745 -70.6953125 47.7421875 C-65.257663 38.49744721 -59.09343037 30.75555991 -51.4375 23.25 C-50.58027344 22.40566406 -49.72304688 21.56132812 -48.83984375 20.69140625 C-35.3752949 8.03771771 -18.67693533 -0.18089041 0 0 Z " fill="#377491" transform="translate(83.4375,4.75)"/>
<path d="M0 0 C1.1240625 0.26167969 2.248125 0.52335938 3.40625 0.79296875 C16.2229429 3.97953663 28.72676773 11.55257358 37 22 C37 22.66 37 23.32 37 24 C37.66 24 38.32 24 39 24 C54.60292071 48.11360473 58.18738282 75.41143222 58.11352539 103.59082031 C58.11324266 105.11966449 58.11340294 106.6485088 58.1139679 108.17735291 C58.1142525 112.29015965 58.10841059 116.40293668 58.10139394 120.51573658 C58.09510397 124.82785195 58.09455216 129.13996815 58.09336853 133.4520874 C58.09027175 141.60090835 58.08208084 149.74971573 58.07201904 157.89853072 C58.05870598 168.92189256 58.05334463 179.94525816 58.04751682 190.96862602 C58.03813969 208.31242749 58.01820978 225.65620035 58 243 C33.25 243 8.5 243 -17 243 C-17.04898438 233.2959375 -17.09796875 223.591875 -17.1484375 213.59375 C-17.18384886 207.42316849 -17.21974504 201.25259601 -17.2578125 195.08203125 C-17.3180626 185.30129106 -17.37640909 175.52056768 -17.421875 165.73974609 C-17.45500759 158.61408837 -17.49495287 151.48850548 -17.54279006 144.36293077 C-17.56784578 140.59646521 -17.58968638 136.83004791 -17.60334396 133.06352234 C-16.26530382 100.58841442 -16.26530382 100.58841442 -29 72 C-30.81680524 70.29146446 -30.81680524 70.29146446 -32.75 68.875 C-33.36359375 68.39804688 -33.9771875 67.92109375 -34.609375 67.4296875 C-41.60154425 63.24809609 -47.75374404 62.47565909 -55.75 62.5625 C-56.72211426 62.57007324 -57.69422852 62.57764648 -58.69580078 62.58544922 C-69.61747216 62.83553596 -78.98258229 65.22553434 -87 73 C-96.5667988 83.66967373 -100.06716802 99.87692181 -100.15821838 113.84664917 C-100.1680072 114.99080795 -100.17779602 116.13496674 -100.18788147 117.313797 C-100.19363693 118.55457504 -100.1993924 119.79535309 -100.20532227 121.07373047 C-100.21522186 122.39133865 -100.22512146 123.70894684 -100.23532104 125.06648254 C-100.26226674 128.66723293 -100.28333198 132.26799629 -100.30332303 135.8687911 C-100.32524664 139.63643833 -100.35260403 143.40404606 -100.37937927 147.17166138 C-100.4292202 154.30067412 -100.4741908 161.4297089 -100.51740164 168.55876458 C-100.57609844 178.19615094 -100.64233892 187.83348529 -100.70815182 197.4708252 C-100.81159191 212.6471817 -100.90497048 227.8235831 -101 243 C-125.75 243 -150.5 243 -176 243 C-176 163.47 -176 83.94 -176 2 C-152.24 2 -128.48 2 -104 2 C-104 12.89 -104 23.78 -104 35 C-103.34 35 -102.68 35 -102 35 C-101.77699219 34.13375 -101.55398437 33.2675 -101.32421875 32.375 C-99.80582258 28.50510535 -97.65021331 25.94186266 -94.8125 23 C-94.06722046 22.21181885 -94.06722046 22.21181885 -93.30688477 21.40771484 C-68.23414562 -4.82636521 -33.7844604 -8.40642471 0 0 Z " fill="#BBBCBB" transform="translate(357,172)"/>
<path d="M0 0 C24.75 0 49.5 0 75 0 C75.02202652 30.55756047 75.04049794 61.11511366 75.05106533 91.67267954 C75.05231611 95.27649666 75.05361042 98.88031376 75.05493164 102.48413086 C75.05519395 103.20161609 75.05545626 103.91910133 75.05572652 104.65832854 C75.06008331 116.29093668 75.06797091 127.92353991 75.0771528 139.55614512 C75.08648909 151.48343053 75.09205556 163.41071335 75.09408849 175.33800226 C75.09534006 182.04108898 75.0983618 188.74416543 75.10573006 195.44724846 C75.11248607 201.74835179 75.11461782 208.04943928 75.11310768 214.35054588 C75.1133842 216.67059668 75.11539179 218.99064797 75.11920547 221.31069565 C75.12413618 224.46328943 75.1230006 227.61582235 75.12025452 230.76841736 C75.12316736 231.69933211 75.1260802 232.63024686 75.12908131 233.58937114 C75.11412121 239.88587879 75.11412121 239.88587879 74 241 C49.58 241 25.16 241 0 241 C0 161.47 0 81.94 0 0 Z " fill="#BABAB7" transform="translate(60,174)"/>
<path d="M0 0 C24.75 0 49.5 0 75 0 C75.02202652 30.55756047 75.04049794 61.11511366 75.05106533 91.67267954 C75.05231611 95.27649666 75.05361042 98.88031376 75.05493164 102.48413086 C75.05519395 103.20161609 75.05545626 103.91910133 75.05572652 104.65832854 C75.06008331 116.29093668 75.06797091 127.92353991 75.0771528 139.55614512 C75.08648909 151.48343053 75.09205556 163.41071335 75.09408849 175.33800226 C75.09534006 182.04108898 75.0983618 188.74416543 75.10573006 195.44724846 C75.11248607 201.74835179 75.11461782 208.04943928 75.11310768 214.35054588 C75.1133842 216.67059668 75.11539179 218.99064797 75.11920547 221.31069565 C75.12413618 224.46328943 75.1230006 227.61582235 75.12025452 230.76841736 C75.12316736 231.69933211 75.1260802 232.63024686 75.12908131 233.58937114 C75.11412121 239.88587879 75.11412121 239.88587879 74 241 C71.69946165 241.09443335 69.39597827 241.11742128 67.09350586 241.11352539 C66.35988358 241.11364593 65.62626131 241.11376646 64.87040806 241.11389065 C62.48518958 241.11314161 60.10004833 241.10551382 57.71484375 241.09765625 C56.24646034 241.0961868 54.77807642 241.09516611 53.30969238 241.09460449 C47.85228696 241.08935194 42.39489273 241.07539085 36.9375 241.0625 C24.748125 241.041875 12.55875 241.02125 0 241 C0 205.69 0 170.38 0 134 C0.33 134 0.66 134 1 134 C1 168.65 1 203.3 1 239 C24.76 239 48.52 239 73 239 C72.98839844 231.29011719 72.97679687 223.58023438 72.96484375 215.63671875 C72.95970906 210.62825432 72.95489353 205.61979333 72.95117188 200.61132812 C72.94529013 192.73444946 72.93849103 184.85758269 72.92456055 176.98071289 C72.86483706 142.30633191 73.16801452 107.66481096 74 73 C58.655 73.495 58.655 73.495 43 74 C42.34 75.98 41.68 77.96 41 80 C27.47 80.33 13.94 80.66 0 81 C0 54.27 0 27.54 0 0 Z " fill="#B4AFAB" transform="translate(60,174)"/>
<path d="M0 0 C1.26420776 0.00241699 1.26420776 0.00241699 2.55395508 0.00488281 C9.28778725 0.13693143 14.74826943 1.36871193 20.8125 4.375 C21.93205078 4.86033203 21.93205078 4.86033203 23.07421875 5.35546875 C31.7354041 9.27781702 37.35404527 16.62563909 41.046875 25.26171875 C45.71960285 37.94241861 46.47454289 48.77643225 40.8125 61.375 C40.4 62.40625 39.9875 63.4375 39.5625 64.5 C34.54171313 72.74843558 27.74748966 79.45667924 18.75 83.0625 C17.21666016 83.68705078 17.21666016 83.68705078 15.65234375 84.32421875 C6.14912432 87.84054066 -6.46603964 87.87173106 -16.05078125 84.421875 C-19.84812658 82.56138405 -22.96716345 80.08539172 -26.1875 77.375 C-27.7034375 76.323125 -27.7034375 76.323125 -29.25 75.25 C-35.72251711 69.76781338 -40.76131143 59.71370617 -42.1875 51.375 C-43.345311 36.74744419 -40.79293067 24.9818598 -31.62890625 13.40625 C-23.34488179 4.34746066 -12.05518313 -0.02390716 0 0 Z " fill="#B8B3AD" transform="translate(96.1875,54.625)"/>
<path d="M0 0 C0.82927002 0.00612305 1.65854004 0.01224609 2.51293945 0.01855469 C9.16962787 0.18765474 14.63259771 1.46682016 20.625 4.4375 C21.74455078 4.92283203 21.74455078 4.92283203 22.88671875 5.41796875 C31.5479041 9.34031702 37.16654527 16.68813909 40.859375 25.32421875 C45.5205697 37.97362031 46.329243 48.86067507 40.625 61.4375 C40.13 62.4275 40.13 62.4275 39.625 63.4375 C38.965 63.4375 38.305 63.4375 37.625 63.4375 C37.295 64.4275 36.965 65.4175 36.625 66.4375 C35.1875 68.125 35.1875 68.125 33.625 69.4375 C32.965 69.4375 32.305 69.4375 31.625 69.4375 C31.44324219 68.35210937 31.26148438 67.26671875 31.07421875 66.1484375 C30.82080466 64.70303863 30.56687075 63.25773082 30.3125 61.8125 C30.13557617 60.74322266 30.13557617 60.74322266 29.95507812 59.65234375 C28.69622622 52.6156844 26.03482092 47.55896044 21.26171875 42.27734375 C19.625 40.4375 19.625 40.4375 18.20703125 38.56640625 C11.04604753 29.41728309 0.20835633 21.9566287 -11.375 20.4375 C-11.96667969 20.1075 -12.55835937 19.7775 -13.16796875 19.4375 C-17.25248526 17.58681641 -21.83383079 17.96519934 -26.2578125 17.78125 C-29.375 17.4375 -29.375 17.4375 -31.375 15.4375 C-29.32412298 11.58714378 -27.32703273 9.29938942 -23.75 6.8125 C-22.95335938 6.24273437 -22.15671875 5.67296875 -21.3359375 5.0859375 C-14.43018637 1.24131088 -7.85291985 -0.09963799 0 0 Z " fill="#C8CAC4" transform="translate(96.375,54.5625)"/>
<path d="M0 0 C0.33 0 0.66 0 1 0 C1 38.94 1 77.88 1 118 C-12.2 118 -25.4 118 -39 118 C-39 120.97 -39 123.94 -39 127 C-39.28792257 129.33937089 -39.60449314 131.67639722 -40 134 C-38.68 134.33 -37.36 134.66 -36 135 C-36.99 135.33 -37.98 135.66 -39 136 C-39.33 184.51 -39.66 233.02 -40 283 C-40.66 282.67 -41.32 282.34 -42 282 C-41.67 224.91 -41.34 167.82 -41 109 C-38.03 108.01 -35.06 107.02 -32 106 C-29.10124398 104.57978795 -29.10124398 104.57978795 -26.6875 102.875 C-25.88699219 102.35679687 -25.08648437 101.83859375 -24.26171875 101.3046875 C-17.48610685 94.40035067 -15.41676487 82.76593687 -12.375 73.75 C-11.63907944 71.57893778 -10.90195423 69.40829397 -10.16348267 67.23809814 C-9.70765681 65.89748978 -9.25343773 64.55633361 -8.80111694 63.21453857 C-7.89904795 60.55301626 -6.97017794 57.92796188 -5.89501953 55.33081055 C-4.37269583 51.36637401 -4.02967594 47.25699979 -3.5 43.0625 C-3.30990356 41.5918811 -3.30990356 41.5918811 -3.1159668 40.09155273 C-1.48893188 26.77954256 -0.76188132 13.38421668 0 0 Z " fill="#256486" transform="translate(176,132)"/>
<path d="M0 0 C1.98 0 3.96 0 6 0 C6 22.44 6 44.88 6 68 C-4.125 70.25 -4.125 70.25 -8.25390625 69.9765625 C-9.56391602 69.89921875 -9.56391602 69.89921875 -10.90039062 69.8203125 C-11.77888672 69.75585938 -12.65738281 69.69140625 -13.5625 69.625 C-14.93245117 69.53992188 -14.93245117 69.53992188 -16.33007812 69.453125 C-18.55437982 69.3133783 -20.77724097 69.16217968 -23 69 C-22.68816773 60.93913589 -20.98314041 54.4485287 -18 47 C-17.47525448 45.59650859 -16.95469841 44.19144634 -16.4375 42.78515625 C-16.16897217 42.05643311 -15.90044434 41.32770996 -15.6237793 40.5769043 C-15.08848441 39.12405307 -14.55348457 37.6710931 -14.01879883 36.21801758 C-12.11305303 31.11305303 -12.11305303 31.11305303 -11 30 C-10.83612693 26.44031275 -10.74503063 22.88299157 -10.671875 19.3203125 C-10 16 -10 16 -7.59375 14.33203125 C-6.7378125 13.89246094 -5.881875 13.45289063 -5 13 C-3.60558953 10.91426573 -3.60558953 10.91426573 -2.75 8.5625 C-2.43546875 7.80066406 -2.1209375 7.03882813 -1.796875 6.25390625 C-1.06456911 4.18262929 -0.48761176 2.14061561 0 0 Z " fill="#C5C4BE" transform="translate(128,174)"/>
<path d="M0 0 C23.76 0 47.52 0 72 0 C72 6.93 72 13.86 72 21 C71.67 21 71.34 21 71 21 C71 14.4 71 7.8 71 1 C48.23 1 25.46 1 2 1 C2 79.54 2 158.08 2 239 C25.76 239 49.52 239 74 239 C73.96519531 228.94917969 73.93039063 218.89835937 73.89453125 208.54296875 C73.87919874 202.16731539 73.8646322 195.79167543 73.85351562 189.41601562 C73.8357374 179.30114156 73.81487451 169.18634264 73.77368164 159.0715332 C73.74369113 151.7038949 73.72440417 144.33631777 73.71773452 136.96862012 C73.71383853 133.07088826 73.70474295 129.17333131 73.68280983 125.27565575 C73.66229176 121.59930203 73.65619677 117.92319357 73.66067696 114.24678802 C73.65947135 112.27004856 73.64341001 110.29333518 73.6267395 108.31666565 C73.65281286 100.72024477 74.63336195 94.2104659 77 87 C77.40147732 85.60577954 77.79807458 84.21013463 78.1875 82.8125 C78.5896875 81.4203125 78.5896875 81.4203125 79 80 C80.32 79.67 81.64 79.34 83 79 C82.71253906 79.66128906 82.42507813 80.32257813 82.12890625 81.00390625 C80.77921713 84.58595314 79.84397875 88.22541782 78.9375 91.9375 C78.76412109 92.62779297 78.59074219 93.31808594 78.41210938 94.02929688 C76.94220865 99.97084963 75.88184376 105.69997236 75.84178162 111.84664917 C75.8319928 112.99080795 75.82220398 114.13496674 75.81211853 115.313797 C75.80636307 116.55457504 75.8006076 117.79535309 75.79467773 119.07373047 C75.78477814 120.39133865 75.77487854 121.70894684 75.76467896 123.06648254 C75.73773326 126.66723293 75.71666802 130.26799629 75.69667697 133.8687911 C75.67475336 137.63643833 75.64739597 141.40404606 75.62062073 145.17166138 C75.5707798 152.30067412 75.5258092 159.4297089 75.48259836 166.55876458 C75.42390156 176.19615094 75.35766108 185.83348529 75.29184818 195.4708252 C75.18840809 210.6471817 75.09502952 225.8235831 75 241 C50.25 241 25.5 241 0 241 C0 161.47 0 81.94 0 0 Z " fill="#86A6B1" transform="translate(181,174)"/>
<path d="M0 0 C9.39455688 14.09183532 8.1560965 37.34834187 8.11352539 53.59082031 C8.11324266 55.11966449 8.11340294 56.6485088 8.1139679 58.17735291 C8.1142525 62.29015965 8.10841059 66.40293668 8.10139394 70.51573658 C8.09510397 74.82785195 8.09455216 79.13996815 8.09336853 83.4520874 C8.09027175 91.60090835 8.08208084 99.74971573 8.07201904 107.89853072 C8.05870598 118.92189256 8.05334463 129.94525816 8.04751682 140.96862602 C8.03813969 158.31242749 8.01820978 175.65620035 8 193 C-16.75 193 -41.5 193 -67 193 C-67.04898437 183.2959375 -67.09796875 173.591875 -67.1484375 163.59375 C-67.18384886 157.42316849 -67.21974504 151.25259601 -67.2578125 145.08203125 C-67.3180626 135.30129106 -67.37640909 125.52056768 -67.421875 115.73974609 C-67.45500759 108.61408837 -67.49495287 101.48850548 -67.54279006 94.36293077 C-67.56784578 90.59646521 -67.58968638 86.83004791 -67.60334396 83.06352234 C-67.1330325 55.7192772 -67.1330325 55.7192772 -73.9765625 29.57421875 C-75 27 -75 27 -75 24 C-70.73639948 26.13180026 -69.49958113 31.75478999 -68 36 C-67.31435714 38.84716365 -66.82889554 41.70800998 -66.3828125 44.6015625 C-66.19110725 45.84462158 -66.19110725 45.84462158 -65.99552917 47.11279297 C-64.61811808 56.72510522 -64.42400429 66.30422267 -64.3125 76 C-64.27985011 78.04362607 -64.24679503 80.08724569 -64.21337891 82.13085938 C-63.91902697 102.05949258 -63.89922973 121.99296954 -63.87795639 141.92346191 C-63.87499542 144.50398946 -63.87082903 147.08451331 -63.86660767 149.66503906 C-63.86073419 153.75024172 -63.86076119 157.83540476 -63.86549187 161.92060852 C-63.86661728 163.44590727 -63.86609933 164.97120817 -63.86389351 166.49650574 C-63.86135775 168.59080775 -63.86509303 170.6850028 -63.87060547 172.77929688 C-63.87140106 173.96164917 -63.87219666 175.14400146 -63.87301636 176.36218262 C-64 179 -64 179 -65 180 C-65.33 183.63 -65.66 187.26 -66 191 C-41.91 191 -17.82 191 7 191 C6.90860331 168.84659173 6.90860331 168.84659173 6.79101562 146.69335938 C6.7371003 137.62363531 6.68577087 128.55396142 6.65356445 119.48413086 C6.67064327 65.07376792 6.67064327 65.07376792 1.44291687 10.97044373 C0.89860202 7.31996944 0.43972123 3.66434362 0 0 Z " fill="#A3B6B8" transform="translate(407,222)"/>
<path d="M0 0 C0 16.17 0 32.34 0 49 C-3.63 49 -7.26 49 -11 49 C-11.64785647 45.6462128 -12.29334708 42.29199877 -12.9375 38.9375 C-13.11990234 37.99455078 -13.30230469 37.05160156 -13.49023438 36.08007812 C-14.93866326 28.52191283 -16.13607781 21.28816964 -16.0625 13.5625 C-16.05347656 12.32628906 -16.04445313 11.09007812 -16.03515625 9.81640625 C-16.02355469 8.88699219 -16.01195313 7.95757812 -16 7 C-13.71070947 5.82845707 -11.41881638 4.66261926 -9.125 3.5 C-8.47402344 3.16613281 -7.82304688 2.83226562 -7.15234375 2.48828125 C-2.2265625 0 -2.2265625 0 0 0 Z " fill="#C1C2C1" transform="translate(133,364)"/>
<path d="M0 0 C0.33 0 0.66 0 1 0 C1.02278992 30.55755834 1.04049794 61.11511474 1.05106533 91.67267954 C1.05231611 95.27649666 1.05361042 98.88031376 1.05493164 102.48413086 C1.05519395 103.20161609 1.05545626 103.91910133 1.05572652 104.65832854 C1.06008331 116.29093668 1.06797091 127.92353991 1.0771528 139.55614512 C1.08648909 151.48343053 1.09205556 163.41071335 1.09408849 175.33800226 C1.09534006 182.04108898 1.0983618 188.74416543 1.10573006 195.44724846 C1.11248607 201.74835179 1.11461782 208.04943928 1.11310768 214.35054588 C1.1133842 216.67059668 1.11539179 218.99064797 1.11920547 221.31069565 C1.12413618 224.46328943 1.1230006 227.61582235 1.12025452 230.76841736 C1.12316736 231.69933211 1.1260802 232.63024686 1.12908131 233.58937114 C1.11412121 239.88587879 1.11412121 239.88587879 0 241 C-2.30053835 241.09443335 -4.60402173 241.11742128 -6.90649414 241.11352539 C-7.64011642 241.11364593 -8.37373869 241.11376646 -9.12959194 241.11389065 C-11.51481042 241.11314161 -13.89995167 241.10551382 -16.28515625 241.09765625 C-17.75353966 241.0961868 -19.22192358 241.09516611 -20.69030762 241.09460449 C-26.14771304 241.08935194 -31.60510727 241.07539085 -37.0625 241.0625 C-49.251875 241.041875 -61.44125 241.02125 -74 241 C-74 205.69 -74 170.38 -74 134 C-73.67 134 -73.34 134 -73 134 C-73 168.65 -73 203.3 -73 239 C-49.24 239 -25.48 239 -1 239 C-1.01160156 232.13703125 -1.02320313 225.2740625 -1.03515625 218.203125 C-1.04748873 208.55208521 -1.05598979 198.9010454 -1.0625 189.25 C-1.06335602 187.99026241 -1.06421204 186.73052483 -1.06509399 185.43261337 C-1.09112833 141.89039733 -0.8766354 98.35299862 -0.5 54.8125 C-0.49402628 54.12054598 -0.48805257 53.42859196 -0.48189783 52.71566963 C-0.33002532 35.14369775 -0.16958562 17.5718101 0 0 Z " fill="#86A3AB" transform="translate(134,174)"/>
<path d="M0 0 C1.24132187 0.0199855 2.48264374 0.03997101 3.76158142 0.06056213 C4.44447739 0.07016968 5.12737335 0.07977722 5.83096313 0.0896759 C8.09822046 0.12277443 10.36529154 0.16306494 12.63243103 0.2033844 C14.20041234 0.22767494 15.76840062 0.25151902 17.33639526 0.27493286 C21.47110415 0.33788002 25.60569013 0.4069163 29.74028015 0.47718811 C33.95622645 0.54777581 38.17226015 0.61264992 42.38829041 0.67799377 C50.66638194 0.80714306 58.94435242 0.94272022 67.22227478 1.08229065 C67.22227478 1.41229065 67.22227478 1.74229065 67.22227478 2.08229065 C44.45227478 2.08229065 21.68227478 2.08229065 -1.77772522 2.08229065 C-1.77772522 81.61229065 -1.77772522 161.14229065 -1.77772522 243.08229065 C-2.43772522 243.41229065 -3.09772522 243.74229065 -3.77772522 244.08229065 C-4.10772522 234.84229065 -4.43772522 225.60229065 -4.77772522 216.08229065 C-5.10772522 216.08229065 -5.43772522 216.08229065 -5.77772522 216.08229065 C-5.77772522 212.78229065 -5.77772522 209.48229065 -5.77772522 206.08229065 C-4.78772522 206.08229065 -3.79772522 206.08229065 -2.77772522 206.08229065 C-2.88581269 196.77145536 -2.99855757 187.46069099 -3.11706448 178.14998245 C-3.17196389 173.82552128 -3.2253266 169.50105308 -3.27503967 165.17652893 C-3.32317542 160.9943347 -3.3755276 156.81221162 -3.43066597 152.63010406 C-3.4508692 151.04353891 -3.46961499 149.45695443 -3.48679924 147.8703537 C-3.57585499 139.73581686 -3.76388697 131.66303401 -4.58192444 123.56092834 C-4.88013013 119.78594913 -4.65892641 116.09809317 -4.34022522 112.33229065 C-4.26191467 111.26881409 -4.26191467 111.26881409 -4.18202209 110.18385315 C-4.0555845 108.48269284 -3.91796012 106.78236919 -3.77772522 105.08229065 C-4.43772522 105.08229065 -5.09772522 105.08229065 -5.77772522 105.08229065 C-5.59210022 103.98916565 -5.40647522 102.89604065 -5.21522522 101.76979065 C-4.51991842 98.14604932 -4.51991842 98.14604932 -5.77772522 95.08229065 C-5.11772522 95.08229065 -4.45772522 95.08229065 -3.77772522 95.08229065 C-3.77994583 93.9068721 -3.78216644 92.73145355 -3.78445435 91.52041626 C-3.80468424 80.46890388 -3.81969662 69.41739523 -3.82953739 58.36586857 C-3.83476661 52.68352553 -3.84186495 47.00119738 -3.85316467 41.31886292 C-3.86399218 35.83999929 -3.87000176 30.36115003 -3.87260246 24.88227654 C-3.87445696 22.78699454 -3.87807803 20.69171337 -3.88345528 18.59643745 C-3.8906639 15.67251481 -3.89171624 12.74865232 -3.89125061 9.82472229 C-3.89484589 8.94934814 -3.89844116 8.073974 -3.90214539 7.17207336 C-3.88990165 0.11523909 -3.88990165 0.11523909 0 0 Z " fill="#4E7786" transform="translate(61.77772521972656,171.91770935058594)"/>
<path d="M0 0 C9.39455688 14.09183532 8.1560965 37.34834187 8.11352539 53.59082031 C8.11324266 55.11966449 8.11340294 56.6485088 8.1139679 58.17735291 C8.1142525 62.29015965 8.10841059 66.40293668 8.10139394 70.51573658 C8.09510397 74.82785195 8.09455216 79.13996815 8.09336853 83.4520874 C8.09027175 91.60090835 8.08208084 99.74971573 8.07201904 107.89853072 C8.05870598 118.92189256 8.05334463 129.94525816 8.04751682 140.96862602 C8.03813969 158.31242749 8.01820978 175.65620035 8 193 C-16.75 193 -41.5 193 -67 193 C-67 192.67 -67 192.34 -67 192 C-42.58 192 -18.16 192 7 192 C6.90861115 169.66885799 6.90861115 169.66885799 6.79101562 147.33789062 C6.737095 138.19573802 6.68576554 129.05363526 6.65356445 119.91137695 C6.68075393 65.28750352 6.68075393 65.28750352 1.44291687 10.97154236 C0.89874656 7.32068766 0.43976363 3.66469694 0 0 Z " fill="#87A9B2" transform="translate(407,222)"/>
<path d="M0 0 C2.75 0.125 2.75 0.125 6 1 C7.36176581 2.98075027 8.69593116 4.98079663 10 7 C12.62766389 7.96219702 12.62766389 7.96219702 15 8 C15 10.64 15 13.28 15 16 C16.11375 16.433125 16.11375 16.433125 17.25 16.875 C19.56739797 17.82302644 21.77917115 18.84845911 24 20 C23.79375 21.051875 23.5875 22.10375 23.375 23.1875 C22.99025662 27.09905766 23.4106803 28.54089242 25 32 C25 33.32 25 34.64 25 36 C25.66 36 26.32 36 27 36 C27.28875 37.134375 27.5775 38.26875 27.875 39.4375 C28.24625 40.613125 28.6175 41.78875 29 43 C29.66 43.33 30.32 43.66 31 44 C30.67 44.99 30.34 45.98 30 47 C30.20320754 48.59571391 30.4162366 50.19071646 30.67529297 51.77832031 C31.38224287 56.61534596 31.68256031 61.5034542 32.0625 66.375 C32.15192871 67.52081543 32.24135742 68.66663086 32.33349609 69.84716797 C33.00147348 78.91766466 33.2278669 87.91064255 33 97 C32.34 97 31.68 97 31 97 C30.96036133 96.10506836 30.92072266 95.21013672 30.87988281 94.28808594 C29.63225552 67.43997376 28.26901666 39.48418182 13.3203125 16.1875 C12 14 12 14 12 12 C11.34 12 10.68 12 10 12 C8.37890625 10.390625 8.37890625 10.390625 6.5625 8.25 C5.96566406 7.55390625 5.36882812 6.8578125 4.75390625 6.140625 C3.10918902 4.13326411 1.53873892 2.08929688 0 0 Z " fill="#1E5775" transform="translate(384,184)"/>
<path d="M0 0 C0.99 0 1.98 0 3 0 C2.56880859 0.99193359 2.56880859 0.99193359 2.12890625 2.00390625 C0.77921713 5.58595314 -0.15602125 9.22541782 -1.0625 12.9375 C-1.23587891 13.62779297 -1.40925781 14.31808594 -1.58789062 15.02929688 C-3.05438564 20.95708325 -4.11794909 26.67624777 -4.15821838 32.8086853 C-4.1680072 33.94442993 -4.17779602 35.08017456 -4.18788147 36.25033569 C-4.19363693 37.481763 -4.1993924 38.71319031 -4.20532227 39.98193359 C-4.21522186 41.28978821 -4.22512146 42.59764282 -4.23532104 43.94512939 C-4.26226524 47.519021 -4.28333128 51.09292566 -4.30332303 54.66686201 C-4.32524757 58.4064822 -4.35260451 62.1460626 -4.37937927 65.88565063 C-4.42921894 72.96153927 -4.47419 80.0374501 -4.51740164 87.11338198 C-4.57609983 96.67901778 -4.64233964 106.24460119 -4.70815182 115.8101902 C-4.81158994 130.87342479 -4.90496981 145.93670459 -5 161 C-28.1 161 -51.2 161 -75 161 C-75 160.67 -75 160.34 -75 160 C-52.23 160 -29.46 160 -6 160 C-6.03480469 149.94917969 -6.06960937 139.89835937 -6.10546875 129.54296875 C-6.12080126 123.16731539 -6.1353678 116.79167543 -6.14648438 110.41601562 C-6.1642626 100.30114156 -6.18512549 90.18634264 -6.22631836 80.0715332 C-6.25630887 72.7038949 -6.27559583 65.33631777 -6.28226548 57.96862012 C-6.28616147 54.07088826 -6.29525705 50.17333131 -6.31719017 46.27565575 C-6.33770824 42.59930203 -6.34380323 38.92319357 -6.33932304 35.24678802 C-6.34052865 33.27004856 -6.35658999 31.29333518 -6.3732605 29.31666565 C-6.34717623 21.71706625 -5.35549635 15.21553857 -3 8 C-2.62026295 6.6263007 -2.244637 5.25145141 -1.875 3.875 C-1 1 -1 1 0 0 Z " fill="#A1B9BE" transform="translate(261,253)"/>
<path d="M0 0 C3.49992803 -0.05869332 6.9997272 -0.09382709 10.5 -0.125 C11.48226562 -0.14175781 12.46453125 -0.15851563 13.4765625 -0.17578125 C19.35918665 -0.21499874 24.36364503 0.29567362 30 2 C30 2.66 30 3.32 30 4 C31.65 4 33.3 4 35 4 C35 4.66 35 5.32 35 6 C37.31 6.33 39.62 6.66 42 7 C34.62475124 11.9168325 23.47094016 10.82448396 14.94140625 9.5390625 C9.11202746 7.9930494 4.40835238 5.11282038 0 1 C0 0.67 0 0.34 0 0 Z " fill="#A8A7A3" transform="translate(70,131)"/>
<path d="M0 0 C21.85641892 0 21.85641892 0 31.6875 1 C33.2044043 1.14308594 33.2044043 1.14308594 34.75195312 1.2890625 C37.1688518 1.51815242 39.58467415 1.75498111 42 2 C42 2.33 42 2.66 42 3 C28.8 3 15.6 3 2 3 C2 5.97 2 8.94 2 12 C1.71207743 14.33937089 1.39550686 16.67639722 1 19 C2.32 19.33 3.64 19.66 5 20 C4.01 20.33 3.02 20.66 2 21 C1.67 69.51 1.34 118.02 1 168 C0.34 167.67 -0.32 167.34 -1 167 C-0.67 111.89 -0.34 56.78 0 0 Z " fill="#366E8C" transform="translate(135,247)"/>
<path d="M0 0 C1.24132187 0.0199855 2.48264374 0.03997101 3.76158142 0.06056213 C4.44447739 0.07016968 5.12737335 0.07977722 5.83096313 0.0896759 C8.09822046 0.12277443 10.36529154 0.16306494 12.63243103 0.2033844 C14.20041234 0.22767494 15.76840062 0.25151902 17.33639526 0.27493286 C21.47110415 0.33788002 25.60569013 0.4069163 29.74028015 0.47718811 C33.95622645 0.54777581 38.17226015 0.61264992 42.38829041 0.67799377 C50.66638194 0.80714306 58.94435242 0.94272022 67.22227478 1.08229065 C67.22227478 1.41229065 67.22227478 1.74229065 67.22227478 2.08229065 C44.45227478 2.08229065 21.68227478 2.08229065 -1.77772522 2.08229065 C-1.77772522 28.48229065 -1.77772522 54.88229065 -1.77772522 82.08229065 C-2.10772522 82.08229065 -2.43772522 82.08229065 -2.77772522 82.08229065 C-3.8737366 29.43321685 -3.8737366 29.43321685 -3.90272522 11.83229065 C-3.90723694 10.7124176 -3.91174866 9.59254456 -3.91639709 8.43873596 C-3.9144635 7.44970276 -3.91252991 6.46066956 -3.91053772 5.44166565 C-3.90940979 4.61118713 -3.90828186 3.78070862 -3.90711975 2.92506409 C-3.69290454 -0.12568383 -3.08686225 0.09144889 0 0 Z " fill="#4E7080" transform="translate(61.77772521972656,171.91770935058594)"/>
<path d="M0 0 C3 1 3 1 4.28125 2.8359375 C12.66775647 20.30782597 11.35568548 40.23682818 11.07421875 59.10546875 C11.04612046 61.7687397 11.01928161 64.43199411 10.99409485 67.09529114 C10.93237593 73.3351442 10.85459557 79.57468349 10.77067453 85.81427318 C10.6757561 92.9317378 10.59930582 100.04936605 10.52421319 107.16706312 C10.36965897 121.77830203 10.19254109 136.38921275 10 151 C9.67 151 9.34 151 9 151 C8.99668985 150.40145454 8.99337971 149.80290909 8.98996925 149.18622589 C8.90837603 134.55139769 8.81616851 119.91666217 8.71247292 105.28197479 C8.66257431 98.20444346 8.61613104 91.12692242 8.578125 84.04931641 C8.54494932 77.87292992 8.50498203 71.69662901 8.45720994 65.52033758 C8.43219588 62.25689052 8.41135837 58.99350778 8.39665604 55.72999573 C8.40148298 28.71071671 8.40148298 28.71071671 1 3 C0.67 2.01 0.34 1.02 0 0 Z " fill="#8CA7AD" transform="translate(331,246)"/>
<path d="M0 0 C1.61346647 3.22693294 0.83037629 6.60108688 0 10 C-1 11 -2 12 -3 13 C-2.72604615 15.00899487 -2.38290462 17.00889599 -2 19 C-2.35604268 23.20130361 -2.64686186 25.47029279 -5 29 C-5.66 29 -6.32 29 -7 29 C-6.96447021 29.66902344 -6.92894043 30.33804687 -6.89233398 31.02734375 C-5.76826909 53.39604745 -6.24996974 75.62664831 -7 98 C-7.33 98 -7.66 98 -8 98 C-8.07000337 88.8714655 -8.12306365 79.74302567 -8.15543652 70.61427975 C-8.17098636 66.37385913 -8.19202511 62.13362429 -8.22631836 57.89331055 C-8.25929836 53.78894327 -8.27693293 49.68475286 -8.28463173 45.58026314 C-8.29010686 44.02683293 -8.30079456 42.47341063 -8.31719017 40.9200573 C-8.45383836 27.41696303 -6.95181957 14.70249367 -2 2 C-1.34 1.34 -0.68 0.68 0 0 Z " fill="#2F617D" transform="translate(264,254)"/>
<path d="M0 0 C2 4 2 4 2.5 6.1875 C2.665 6.785625 2.83 7.38375 3 8 C3.66 8.33 4.32 8.66 5 9 C5 9.99 5 10.98 5 12 C5.66 12.33 6.32 12.66 7 13 C6.34 13 5.68 13 5 13 C5.33 13.99 5.66 14.98 6 16 C6.66 16.33 7.32 16.66 8 17 C7.67 17.66 7.34 18.32 7 19 C7.680625 18.814375 8.36125 18.62875 9.0625 18.4375 C12 18 12 18 15.03930664 18.45288086 C19.81218879 19.1121935 24.49652095 19.22958747 29.30859375 19.31640625 C30.27531509 19.33718735 31.24203644 19.35796844 32.23805237 19.37937927 C35.30446758 19.44438991 38.37096322 19.50353277 41.4375 19.5625 C43.5253987 19.6057314 45.61328949 19.64934712 47.70117188 19.69335938 C52.80070033 19.80002115 57.90030911 19.90142309 63 20 C63 20.33 63 20.66 63 21 C39.57 21 16.14 21 -8 21 C-8 20.67 -8 20.34 -8 20 C-6.35 19.67 -4.7 19.34 -3 19 C-2.67 18.01 -2.34 17.02 -2 16 C-0.67696283 15.6278958 0.65737935 15.29369827 2 15 C2.33 14.34 2.66 13.68 3 13 C2.34 13 1.68 13 1 13 C0.67 8.71 0.34 4.42 0 0 Z " fill="#316C8F" transform="translate(190,153)"/>
<path d="M0 0 C2.03871001 -0.00217166 4.07686517 -0.02030492 6.11547852 -0.03930664 C13.19789113 -0.04978875 19.54343154 0.27962623 26.37524414 2.18530273 C26.37524414 3.17530273 26.37524414 4.16530273 26.37524414 5.18530273 C27.30336914 5.24717773 28.23149414 5.30905273 29.18774414 5.37280273 C32.37524414 6.18530273 32.37524414 6.18530273 34.31274414 8.62280273 C34.66336914 9.46842773 35.01399414 10.31405273 35.37524414 11.18530273 C35.04524414 11.84530273 34.71524414 12.50530273 34.37524414 13.18530273 C33.74618164 12.64260742 33.11711914 12.09991211 32.46899414 11.54077148 C31.61305664 10.8253418 30.75711914 10.10991211 29.87524414 9.37280273 C29.03993164 8.66510742 28.20461914 7.95741211 27.34399414 7.22827148 C20.39338498 2.44515492 13.94624735 1.657435 5.62524414 1.74780273 C4.65312988 1.75537598 3.68101562 1.76294922 2.67944336 1.77075195 C-8.19509982 2.01975954 -17.67152404 4.37901284 -25.62475586 12.18530273 C-27.48633445 14.44741657 -29.04067259 16.71017262 -30.62475586 19.18530273 C-31.7659665 15.76167081 -31.66046577 15.26862586 -30.12475586 11.68530273 C-27.65846091 7.67757344 -24.78665775 6.26625368 -20.62475586 4.18530273 C-19.90288086 3.62842773 -19.18100586 3.07155273 -18.43725586 2.49780273 C-13.29422243 -1.22646285 -6.02987003 -0.00071861 0 0 Z " fill="#8BA2A9" transform="translate(295.624755859375,232.814697265625)"/>
<path d="M0 0 C-0.48834906 2.53941511 -1.20631963 4.385728 -2.4375 6.6875 C-6.35765051 14.99821909 -6.51037991 23.94202829 -7 33 C-7.68964844 33.06058594 -8.37929688 33.12117188 -9.08984375 33.18359375 C-17.42467248 33.92675406 -25.72253719 34.76718639 -34 36 C-31.60117122 33.12297333 -29.78499584 32.51041728 -26.125 31.9375 C-23.287156 31.44878302 -20.97810862 30.99083617 -18.3125 29.875 C-15.16586844 28.68438265 -12.33055836 28.86938987 -9 29 C-9.09539063 28.08476563 -9.19078125 27.16953125 -9.2890625 26.2265625 C-9.39992188 25.03804687 -9.51078125 23.84953125 -9.625 22.625 C-9.74101563 21.44164063 -9.85703125 20.25828125 -9.9765625 19.0390625 C-9.98429687 18.03617188 -9.99203125 17.03328125 -10 16 C-9.34 15.34 -8.68 14.68 -8 14 C-7.23323689 11.97955123 -6.53204614 9.93374458 -5.875 7.875 C-5.52179687 6.77929688 -5.16859375 5.68359375 -4.8046875 4.5546875 C-4.53914063 3.71164063 -4.27359375 2.86859375 -4 2 C-5.98 2 -7.96 2 -10 2 C-10 1.67 -10 1.34 -10 1 C-2.25 0 -2.25 0 0 0 Z " fill="#305E75" transform="translate(61,72)"/>
<path d="M0 0 C0.99 0.33 1.98 0.66 3 1 C4.98310575 0.86018391 6.96252245 0.66492166 8.9375 0.4375 C15.44978466 -0.12402958 21.71538044 0.04478502 28 2 C29.8359375 3.578125 29.8359375 3.578125 31 5 C28.2692756 6.3653622 26.85698605 5.36195157 24.06884766 4.50683594 C14.20357015 2.08999429 1.74878736 2.80190879 -7 8 C-7.79792969 8.47050781 -8.59585938 8.94101562 -9.41796875 9.42578125 C-14.87399012 12.87028414 -19.39047466 16.58571199 -23 22 C-24.125 18.25 -24.125 18.25 -23 16 C-22.34 16 -21.68 16 -21 16 C-21 15.34 -21 14.68 -21 14 C-20.01 14 -19.02 14 -18 14 C-17.7525 13.030625 -17.505 12.06125 -17.25 11.0625 C-16.8375 10.051875 -16.425 9.04125 -16 8 C-14.18359375 7.3984375 -14.18359375 7.3984375 -12 7 C-10.59634105 6.54426658 -9.20011906 6.06495868 -7.8125 5.5625 C-7.11769531 5.31628906 -6.42289063 5.07007813 -5.70703125 4.81640625 C-3.80483175 4.12128068 -3.80483175 4.12128068 -3 2 C-2.01 1.34 -1.02 0.68 0 0 Z " fill="#4C7E92" transform="translate(84,52)"/>
<path d="M0 0 C0 0.33 0 0.66 0 1 C-5.63281599 1.2396943 -10.54538831 0.38529821 -16 -1 C-16 -1.66 -16 -2.32 -16 -3 C-17.0209375 -2.7215625 -17.0209375 -2.7215625 -18.0625 -2.4375 C-21 -2 -21 -2 -24.6875 -2.5625 C-25.780625 -2.706875 -26.87375 -2.85125 -28 -3 C-28.66 -2.34 -29.32 -1.68 -30 -1 C-30.495 -2.485 -30.495 -2.485 -31 -4 C-34.95818926 -4.08821107 -38.91612062 -4.14079412 -42.875 -4.1875 C-43.98359375 -4.21263672 -45.0921875 -4.23777344 -46.234375 -4.26367188 C-52.58492546 -4.31970614 -57.83214668 -3.83577139 -63.78564453 -1.55200195 C-66.48501674 -0.8790934 -68.33802645 -1.2933617 -71 -2 C-52.04973685 -14.63350877 -19.94915165 -6.03965142 0 0 Z " fill="#87A2AA" transform="translate(368,175)"/>
<path d="M0 0 C2.01136276 2.55991624 3.62845496 5.04590299 5 8 C5.99 8 6.98 8 8 8 C8.04898438 8.59167969 8.09796875 9.18335937 8.1484375 9.79296875 C8.57464285 14.74147236 8.57464285 14.74147236 10.0625 19.4375 C12.6184107 26.42365591 10.76945933 34.33906035 9.4375 41.43359375 C8.91597623 44.05898446 8.91597623 44.05898446 9 47 C7.27832412 50.19739807 5.35722815 53.23281913 3 56 C2.34 56 1.68 56 1 56 C0.9175 56.598125 0.835 57.19625 0.75 57.8125 C-0.20455872 60.5966296 -1.57132271 61.43311142 -4 63 C-4.66 62.67 -5.32 62.34 -6 62 C-5.48050781 61.50113281 -4.96101563 61.00226563 -4.42578125 60.48828125 C1.57079743 54.31435459 4.37578126 48.13169928 7 40 C7.33 39.01 7.66 38.02 8 37 C9.04320115 25.26826252 6.97875751 14.15328721 -0.14453125 4.5859375 C-0.42683594 4.06257813 -0.70914063 3.53921875 -1 3 C-0.67 2.01 -0.34 1.02 0 0 Z " fill="#568395" transform="translate(132,68)"/>
<path d="M0 0 C9.02446749 13.53670123 8.17723905 36.14548946 8.0625 51.75 C8.05798828 52.9359375 8.05347656 54.121875 8.04882812 55.34375 C8.03719316 58.22922228 8.0208484 61.11458213 8 64 C5.50232215 60.25348323 5.4880444 57.02765591 5.21875 52.66796875 C5.13022766 51.42567253 5.13022766 51.42567253 5.03991699 50.15827942 C4.85158471 47.50185632 4.67492309 44.84483719 4.5 42.1875 C3.72692092 30.70099306 2.79327394 19.3793347 1 8 C0.64590176 5.33532382 0.32027809 2.66898411 0 0 Z " fill="#8CA4A9" transform="translate(407,222)"/>
<path d="M0 0 C0.99 0 1.98 0 3 0 C2.71253906 0.66128906 2.42507813 1.32257813 2.12890625 2.00390625 C0.77921713 5.58595314 -0.15602125 9.22541782 -1.0625 12.9375 C-1.23587891 13.62779297 -1.40925781 14.31808594 -1.58789062 15.02929688 C-3.18428189 21.48214281 -4.12335138 27.61575521 -4.20532227 34.29052734 C-4.21522186 34.99366058 -4.22512146 35.69679382 -4.23532104 36.42123413 C-4.26669873 38.72610198 -4.29159869 41.03099038 -4.31640625 43.3359375 C-4.33699632 44.94162506 -4.35799331 46.54730746 -4.37937927 48.15298462 C-4.434388 52.36476435 -4.48389013 56.57659127 -4.53222656 60.78845215 C-4.58259706 65.09208338 -4.63820171 69.39564668 -4.69335938 73.69921875 C-4.80068138 82.13275494 -4.90218321 90.56634823 -5 99 C-5.33 99 -5.66 99 -6 99 C-6.06976926 88.75931744 -6.1229473 78.51869222 -6.15543652 68.27781963 C-6.17103633 63.52163433 -6.19216975 58.76561265 -6.22631836 54.00952148 C-6.25911584 49.41240156 -6.27689567 44.81543819 -6.28463173 40.21821022 C-6.29013887 38.47168326 -6.30089215 36.72516405 -6.31719017 34.97870445 C-6.40218179 25.48641728 -6.17848852 17.06715939 -3 8 C-2.61737346 6.62710272 -2.24149305 5.25229185 -1.875 3.875 C-1 1 -1 1 0 0 Z " fill="#90A6AC" transform="translate(261,253)"/>
<path d="M0 0 C1.26585937 0.04447266 2.53171875 0.08894531 3.8359375 0.13476562 C9.89084136 0.39235345 15.40843111 0.73917725 21.125 2.8125 C21.125 3.1425 21.125 3.4725 21.125 3.8125 C20.06289307 3.79155273 19.00078613 3.77060547 17.90649414 3.74902344 C13.87896793 3.67536267 9.85149788 3.63025377 5.82348633 3.59277344 C4.09649573 3.57293952 2.36956961 3.5458636 0.64282227 3.51074219 C-11.48745395 3.27060863 -22.20988723 4.46310356 -33.875 7.8125 C-35.20173322 8.18980788 -36.5284744 8.56708779 -37.85522461 8.94433594 C-38.85175049 9.23083008 -39.84827637 9.51732422 -40.875 9.8125 C-40.875 9.1525 -40.875 8.4925 -40.875 7.8125 C-38.98414166 7.02954229 -37.08689814 6.26200706 -35.1875 5.5 C-34.13175781 5.07074219 -33.07601563 4.64148438 -31.98828125 4.19921875 C-21.25028951 0.37398351 -11.34291644 -0.58244229 0 0 Z " fill="#295C78" transform="translate(330.875,165.1875)"/>
<path d="M0 0 C0.33 0 0.66 0 1 0 C1 17.82 1 35.64 1 54 C-4.51092114 45.73361829 -1.78679488 32.5383749 -1 23 C-1.66 23 -2.32 23 -3 23 C-2.814375 21.906875 -2.62875 20.81375 -2.4375 19.6875 C-1.7421932 16.06375867 -1.7421932 16.06375867 -3 13 C-2.34 13 -1.68 13 -1 13 C-1.01160156 12.14535156 -1.02320313 11.29070312 -1.03515625 10.41015625 C-1.04417969 9.30542969 -1.05320313 8.20070313 -1.0625 7.0625 C-1.07410156 5.96035156 -1.08570313 4.85820312 -1.09765625 3.72265625 C-1 1 -1 1 0 0 Z " fill="#507F91" transform="translate(59,254)"/>
<path d="M0 0 C-2 3 -2 3 -5.3125 3.8125 C-8.98342407 4.99466199 -9.49718339 5.22541118 -11.625 8.0625 C-14.29660922 11.36685877 -15.04305276 11.35833288 -19 12 C-20.16666667 13.91666667 -20.16666667 13.91666667 -21 16 C-21.99 16.66 -22.98 17.32 -24 18 C-24.22777534 15.14785667 -24.25895503 13.45274257 -22.8203125 10.9375 C-16.69481929 3.93693634 -9.59920966 -1.04339235 0 0 Z " fill="#105173" transform="translate(290,236)"/>
<path d="M0 0 C7.82682162 3.68850214 15.57909689 9.1969461 21 16 C21 16.66 21 17.32 21 18 C21.66 18 22.32 18 23 18 C34.50696174 37.4607049 34.50696174 37.4607049 33.55859375 42.2109375 C33.37425781 42.80132812 33.18992187 43.39171875 33 44 C32.06126309 41.97974095 31.12407197 39.9587636 30.1875 37.9375 C29.63320313 36.74640625 29.07890625 35.5553125 28.5078125 34.328125 C27.4327532 31.95519618 26.46236519 29.6251095 25.5625 27.1875 C23.4029424 22.78200249 20.36660145 19.53119086 17 16 C16.175 15.13375 15.35 14.2675 14.5 13.375 C9.14748847 8.03315422 9.14748847 8.03315422 2.84765625 4.01171875 C1 3 1 3 0 0 Z " fill="#84A0A7" transform="translate(373,178)"/>
<path d="M0 0 C0.66 0.33 1.32 0.66 2 1 C2.28529291 4.37913601 2.43346785 7.62978743 2 11 C-0.1875 13.1875 -0.1875 13.1875 -3 14 C-5.8125 13.6875 -5.8125 13.6875 -8 13 C-8 10.03 -8 7.06 -8 4 C-7.05125 3.896875 -6.1025 3.79375 -5.125 3.6875 C-1.70892499 3.31460705 -1.70892499 3.31460705 0 0 Z " fill="#CFD0D1" transform="translate(251,196)"/>
<path d="M0 0 C0.66 0.33 1.32 0.66 2 1 C-2.26353972 6.40048365 -6.34258403 7.12187458 -13 8 C-13.69609375 8.11085937 -14.3921875 8.22171875 -15.109375 8.3359375 C-28.10996318 10.26002455 -28.10996318 10.26002455 -33 7 C-34.65549531 6.61500109 -36.3222433 6.27206865 -38 6 C-37.67 5.34 -37.34 4.68 -37 4 C-36.01386719 4.15855469 -35.02773437 4.31710938 -34.01171875 4.48046875 C-22.6008031 6.09422045 -11.61151851 5.85711049 -1 1 C-0.67 0.67 -0.34 0.34 0 0 Z " fill="#3F6679" transform="translate(118,135)"/>
<path d="M0 0 C0.66 0.33 1.32 0.66 2 1 C1.01 1.33 0.02 1.66 -1 2 C-1.33 2.99 -1.66 3.98 -2 5 C-4.0625 6.375 -4.0625 6.375 -7 8 C-8.40377546 8.79869983 -9.79924455 9.61211903 -11.1875 10.4375 C-11.86167969 10.82808594 -12.53585937 11.21867188 -13.23046875 11.62109375 C-15.2815361 13.21938685 -15.91475282 14.6704608 -17 17 C-20.240291 19.36453668 -23.04173281 20.43453326 -27 21 C-20.35850426 12.77719575 -13.24272126 7.14000579 -4 2 C-3.28199219 1.59265625 -2.56398438 1.1853125 -1.82421875 0.765625 C-1.22222656 0.51296875 -0.62023437 0.2603125 0 0 Z " fill="#9BAEB1" transform="translate(289,175)"/>
<path d="M0 0 C-0.90621094 0.54527344 -1.81242187 1.09054688 -2.74609375 1.65234375 C-9.74199418 5.9531495 -15.75364492 10.21782383 -21.328125 16.34765625 C-23 18 -23 18 -25 18 C-24.4971962 13.64236704 -21.94698863 11.08094266 -19 8 C-18.113125 7.649375 -17.22625 7.29875 -16.3125 6.9375 C-15.549375 6.628125 -14.78625 6.31875 -14 6 C-13.7525 5.175 -13.505 4.35 -13.25 3.5 C-12 1 -12 1 -9.98828125 0.1953125 C-3.78753541 -1.2625118 -3.78753541 -1.2625118 0 0 Z " fill="#225D7C" transform="translate(285,178)"/>
<path d="M0 0 C0.99 0.33 1.98 0.66 3 1 C3 18.49 3 35.98 3 54 C2.01 53.67 1.02 53.34 0 53 C0.66 53 1.32 53 2 53 C2 43.43 2 33.86 2 24 C1.34 23.67 0.68 23.34 0 23 C0.495 21.515 0.495 21.515 1 20 C1.35236497 18.00326516 1.68834559 16.00349261 2 14 C1.34 13.67 0.68 13.34 0 13 C0 8.71 0 4.42 0 0 Z " fill="#30627D" transform="translate(56,200)"/>
<path d="M0 0 C1.45607397 4.4561727 0.00954181 6.83206143 -2 11 C-2.556875 12.0209375 -2.556875 12.0209375 -3.125 13.0625 C-4.28958894 15.64123266 -4.5451147 18.21382751 -5 21 C-5.33 21.7425 -5.66 22.485 -6 23.25 C-7.50574365 27.39079503 -7.67735918 31.62736778 -8 36 C-8.33 36 -8.66 36 -9 36 C-9.51004902 22.00198797 -7.97004859 11.89059029 0 0 Z " fill="#869C9F" transform="translate(63,70)"/>
<path d="M0 0 C1.61346647 3.22693294 0.83037629 6.60108688 0 10 C-1 11 -2 12 -3 13 C-2.72604615 15.00899487 -2.38290462 17.00889599 -2 19 C-2.31114134 23.58933484 -2.5682129 25.9464475 -6 29 C-6.47912348 19.25782249 -6.2149657 11.02987177 -2 2 C-1.34 1.34 -0.68 0.68 0 0 Z " fill="#235B7B" transform="translate(264,254)"/>
<path d="M0 0 C2 2 2 2 2 5 C2.33 5.99 2.66 6.98 3 8 C2.67222797 9.33471135 2.33771567 10.66776991 2 12 C1.93209325 14.24907152 1.91500016 16.50001605 1.9375 18.75 C1.95103516 20.50570312 1.95103516 20.50570312 1.96484375 22.296875 C1.97644531 23.18890625 1.98804688 24.0809375 2 25 C1.01 25 0.02 25 -1 25 C-1 18.07 -1 11.14 -1 4 C-4.63 4 -8.26 4 -12 4 C-8.38863788 2.19431894 -7.455469 1.75148437 -3.75 1.875 C-1.89375 1.936875 -1.89375 1.936875 0 2 C0 1.34 0 0.68 0 0 Z " fill="#205B79" transform="translate(254,169)"/>
<path d="M0 0 C0 1.32 0 2.64 0 4 C-0.92619141 4.09087891 -0.92619141 4.09087891 -1.87109375 4.18359375 C-9.9361423 4.98150571 -17.98286972 5.80595932 -26 7 C-23.60117122 4.12297333 -21.78499584 3.51041728 -18.125 2.9375 C-15.29978612 2.4516612 -13.01854021 2.0079458 -10.375 0.875 C-6.86614742 -0.41773516 -3.72515472 -0.12627643 0 0 Z " fill="#2D6683" transform="translate(53,101)"/>
<path d="M0 0 C7.59 0 15.18 0 23 0 C22.01 0.33 21.02 0.66 20 1 C20.33 1.99 20.66 2.98 21 4 C14.07 4 7.14 4 0 4 C0 2.68 0 1.36 0 0 Z " fill="#34738F" transform="translate(0,266)"/>
<path d="M0 0 C0.87914063 0.00902344 1.75828125 0.01804688 2.6640625 0.02734375 C4.8178271 0.05075423 6.97145014 0.0866199 9.125 0.125 C9.125 0.455 9.125 0.785 9.125 1.125 C7.28035156 1.19847656 7.28035156 1.19847656 5.3984375 1.2734375 C3.76560434 1.34851029 2.13279288 1.42405615 0.5 1.5 C-0.30824219 1.5309375 -1.11648437 1.561875 -1.94921875 1.59375 C-6.5534124 1.81834481 -10.61228862 2.19694285 -14.875 4.125 C-15.865 5.61 -15.865 5.61 -16.875 7.125 C-20 7.3125 -20 7.3125 -22.875 7.125 C-23.08125 7.74375 -23.2875 8.3625 -23.5 9 C-25.42275888 11.97153645 -27.54094527 12.25524659 -30.875 13.125 C-24.46343315 2.74436795 -11.30873263 -0.22140591 0 0 Z " fill="#A7BDBE" transform="translate(96.875,54.875)"/>
<path d="M0 0 C0.33 0.66 0.66 1.32 1 2 C0.01 2 -0.98 2 -2 2 C-2.33 2.99 -2.66 3.98 -3 5 C-4.85546875 6.32421875 -4.85546875 6.32421875 -7.1875 7.6875 C-11.98586157 10.73055039 -14.93632382 14.26631993 -18 19 C-19.14121064 15.57636808 -19.03570991 15.08332312 -17.5 11.5 C-15.03370505 7.4922707 -12.16190189 6.08095095 -8 4 C-7.278125 3.443125 -6.55625 2.88625 -5.8125 2.3125 C-3.86987765 0.90577347 -2.34340912 0.41846591 0 0 Z " fill="#98AAAC" transform="translate(283,233)"/>
<path d="M0 0 C5.48358804 -0.21645742 10.19334971 0.53647104 15.5 1.875 C16.22058594 2.04902344 16.94117188 2.22304687 17.68359375 2.40234375 C22.15567188 3.49408073 26.5814744 4.70932542 31 6 C31 6.33 31 6.66 31 7 C25.36718401 7.2396943 20.45461169 6.38529821 15 5 C15 4.34 15 3.68 15 3 C13.9790625 3.2784375 13.9790625 3.2784375 12.9375 3.5625 C10 4 10 4 6.3125 3.4375 C5.219375 3.293125 4.12625 3.14875 3 3 C2.34 3.66 1.68 4.32 1 5 C0.67 3.35 0.34 1.7 0 0 Z " fill="#97A9AE" transform="translate(337,169)"/>
<path d="M0 0 C1.95292969 0.05317383 1.95292969 0.05317383 3.9453125 0.10742188 C5.20859375 0.15060547 6.471875 0.19378906 7.7734375 0.23828125 C9.49312744 0.29495972 9.49312744 0.29495972 11.24755859 0.3527832 C14.95508548 0.72021268 18.0811 1.56619449 21.625 2.6875 C21.625 3.0175 21.625 3.3475 21.625 3.6875 C19.14576199 3.71435095 16.6668116 3.73426547 14.1875 3.75 C13.48044922 3.75837891 12.77339844 3.76675781 12.04492188 3.77539062 C10.23806441 3.78403588 8.43112397 3.73970011 6.625 3.6875 C6.295 3.3575 5.965 3.0275 5.625 2.6875 C3.77325294 2.52963692 1.9159089 2.43642644 0.05859375 2.37109375 C-1.6284668 2.30825195 -1.6284668 2.30825195 -3.34960938 2.24414062 C-4.53361328 2.20482422 -5.71761719 2.16550781 -6.9375 2.125 C-8.12537109 2.08181641 -9.31324219 2.03863281 -10.53710938 1.99414062 C-13.48294784 1.88766454 -16.4288743 1.78565159 -19.375 1.6875 C-19.375 1.3575 -19.375 1.0275 -19.375 0.6875 C-12.96174689 -0.85770863 -6.54327529 -0.23506845 0 0 Z " fill="#115474" transform="translate(330.375,165.3125)"/>
<path d="M0 0 C-2.35079674 2.35079674 -3.2300859 2.34550051 -6.4375 2.8125 C-11.54602893 3.7352834 -15.7801578 5.58154971 -20.4375 7.82421875 C-23.58401957 9.2679724 -26.64380871 10.17959768 -30 11 C-27.00559429 7.63308449 -24.30151284 6.02222517 -20.125 4.375 C-19.11695313 3.97023437 -18.10890625 3.56546875 -17.0703125 3.1484375 C-10.95013703 0.85921156 -6.49588138 -0.22399591 0 0 Z " fill="#2D6683" transform="translate(60,131)"/>
<path d="M0 0 C0.99 0 1.98 0 3 0 C3 12.54 3 25.08 3 38 C2.67 38 2.34 38 2 38 C1.67 28.76 1.34 19.52 1 10 C0.67 10 0.34 10 0 10 C0 6.7 0 3.4 0 0 Z " fill="#3C718E" transform="translate(56,378)"/>
<path d="M0 0 C3.00024947 -0.05444001 5.99949039 -0.0938836 9 -0.125 C9.83917969 -0.14175781 10.67835938 -0.15851563 11.54296875 -0.17578125 C17.04256786 -0.2184138 21.75285461 0.29467775 27 2 C27.33 2.66 27.66 3.32 28 4 C23.97745449 5.60901821 21.01380017 4.14680005 17 3 C14.66691552 3.26499604 14.66691552 3.26499604 13 4 C13 3.34 13 2.68 13 2 C11.54176788 1.9729957 10.08339325 1.95360213 8.625 1.9375 C7.40683594 1.92009766 7.40683594 1.92009766 6.1640625 1.90234375 C3.95062858 1.85533666 3.95062858 1.85533666 2 3 C2 2.34 2 1.68 2 1 C1.34 0.67 0.68 0.34 0 0 Z " fill="#125178" transform="translate(291,235)"/>
<path d="M0 0 C2.475 0.99 2.475 0.99 5 2 C5.99 2.33 6.98 2.66 8 3 C7.05065487 4.67180274 6.09026687 6.33733936 5.125 8 C4.59132813 8.928125 4.05765625 9.85625 3.5078125 10.8125 C3.01023437 11.534375 2.51265625 12.25625 2 13 C1.34 13 0.68 13 0 13 C0 8.71 0 4.42 0 0 Z " fill="#3A7894" transform="translate(253,194)"/>
<path d="M0 0 C0.66 0.33 1.32 0.66 2 1 C1.125 8.875 1.125 8.875 0 10 C-0.07313567 12.53049402 -0.09247527 15.03304837 -0.0625 17.5625 C-0.05798828 18.27341797 -0.05347656 18.98433594 -0.04882812 19.71679688 C-0.03700864 21.47790013 -0.01907263 23.23896036 0 25 C-0.99 25.33 -1.98 25.66 -3 26 C-3.30659554 16.84755529 -3.49409003 8.65203245 0 0 Z " fill="#25729D" transform="translate(189,126)"/>
<path d="M0 0 C0.99 0 1.98 0 3 0 C3 1.98 3 3.96 3 6 C0.24075815 7.80411967 -0.88972103 8.0127245 -4.25 7.625 C-5.1575 7.41875 -6.065 7.2125 -7 7 C-7 6.01 -7 5.02 -7 4 C-6.030625 3.525625 -5.06125 3.05125 -4.0625 2.5625 C-1.19522563 1.29806053 -1.19522563 1.29806053 0 0 Z " fill="#2A6886" transform="translate(7,187)"/>
<path d="M0 0 C1.65 0 3.3 0 5 0 C5 0.66 5 1.32 5 2 C6.0828125 1.6596875 6.0828125 1.6596875 7.1875 1.3125 C10 1 10 1 12.0625 2.46875 C16.30388508 4.67968478 20.10942455 4.32427848 24.8125 4.1875 C26.13797852 4.16719727 26.13797852 4.16719727 27.49023438 4.14648438 C29.66042023 4.11129217 31.83029033 4.05748985 34 4 C29.97989893 6.23468689 26.39445125 6.34557879 21.875 6.3125 C21.11815918 6.30903564 20.36131836 6.30557129 19.58154297 6.30200195 C13.2242322 6.1790405 6.15071693 5.8776548 1.2421875 1.39453125 C0.83226563 0.93433594 0.42234375 0.47414062 0 0 Z " fill="#84989C" transform="translate(75,135)"/>
<path d="M0 0 C2.89925428 1.44962714 3.23285518 3.68352781 4.26953125 6.609375 C6.02467495 12.35348167 7.13889683 17.98469871 7 24 C4.36325679 20.04488519 3.22924855 15.94776069 1.8125 11.4375 C1.52697266 10.56158203 1.24144531 9.68566406 0.94726562 8.78320312 C0.68236328 7.94595703 0.41746094 7.10871094 0.14453125 6.24609375 C-0.09934326 5.47966553 -0.34321777 4.7132373 -0.59448242 3.92358398 C-1 2 -1 2 0 0 Z " fill="#265D78" transform="translate(404,207)"/>
<path d="M0 0 C0.99 0.495 0.99 0.495 2 1 C2 2.98 2 4.96 2 7 C2.66 7 3.32 7 4 7 C4.33 8.65 4.66 10.3 5 12 C5.99 12 6.98 12 8 12 C8.33 14.97 8.66 17.94 9 21 C4.2477754 17.12781699 0.5585686 10.89618838 -0.31640625 4.79296875 C-0.3125 2.875 -0.3125 2.875 0 0 Z " fill="#B7C1B4" transform="translate(56,105)"/>
<path d="M0 0 C1.20628008 2.33214148 2.1654738 4.49642139 3 7 C2.07796291 9.36522558 1.08301035 11.70401807 0 14 C-0.99 13.67 -1.98 13.34 -3 13 C-3 10.36 -3 7.72 -3 5 C-2.34 5 -1.68 5 -1 5 C-0.67 3.35 -0.34 1.7 0 0 Z " fill="#25729D" transform="translate(245,62)"/>
<path d="M0 0 C2.92764905 1.35973034 5.34414908 2.94026223 7.875 4.9375 C11.09423775 7.40317086 14.28700721 9.32915324 18 11 C14.50961948 12.23800682 12.66123239 11.80144052 9.3125 10.3125 C8.52488281 9.97863281 7.73726563 9.64476562 6.92578125 9.30078125 C5 8 5 8 4.23046875 5.85546875 C4.15441406 5.24316406 4.07835938 4.63085938 4 4 C3.01 4 2.02 4 1 4 C0.67 2.68 0.34 1.36 0 0 Z " fill="#345E74" transform="translate(63,127)"/>
<path d="M0 0 C0.55945313 0.13277344 1.11890625 0.26554688 1.6953125 0.40234375 C9.09350026 2.03184813 16.44570812 2.58636442 24 3 C20.46448834 5.18906373 17.54861926 5.26870816 13.4375 5.25 C12.30183594 5.25515625 11.16617188 5.2603125 9.99609375 5.265625 C7 5 7 5 4 3 C2.34450469 2.61500109 0.6777567 2.27206865 -1 2 C-0.67 1.34 -0.34 0.68 0 0 Z " fill="#305E76" transform="translate(81,139)"/>
<path d="M0 0 C0.66 0 1.32 0 2 0 C2.28875 1.134375 2.5775 2.26875 2.875 3.4375 C3.24625 4.613125 3.6175 5.78875 4 7 C4.66 7.33 5.32 7.66 6 8 C5.67 8.99 5.34 9.98 5 11 C5.27769908 13.3406065 5.60539977 15.67624308 6 18 C5.34 18 4.68 18 4 18 C4 16.68 4 15.36 4 14 C3.34 14 2.68 14 2 14 C1.34 9.38 0.68 4.76 0 0 Z " fill="#125478" transform="translate(409,220)"/>
<path d="M0 0 C2.97 0.495 2.97 0.495 6 1 C6 1.66 6 2.32 6 3 C11.61 3 17.22 3 23 3 C23 3.33 23 3.66 23 4 C14.75 4 6.5 4 -2 4 C-1.34 2.68 -0.68 1.36 0 0 Z " fill="#145A83" transform="translate(213,169)"/>
<path d="M0 0 C3.93846154 3.32307692 3.93846154 3.32307692 4.25 6.75 C4.1675 7.4925 4.085 8.235 4 9 C3.34 9 2.68 9 2 9 C1.67 12.63 1.34 16.26 1 20 C0.67 20 0.34 20 0 20 C-0.1946838 17.22949974 -0.38102792 14.45886998 -0.5625 11.6875 C-0.61857422 10.90181641 -0.67464844 10.11613281 -0.73242188 9.30664062 C-0.78076172 8.54931641 -0.82910156 7.79199219 -0.87890625 7.01171875 C-0.9260376 6.31522217 -0.97316895 5.61872559 -1.02172852 4.90112305 C-1 3 -1 3 0 0 Z " fill="#26739E" transform="translate(219,125)"/>
<path d="M0 0 C0.66 0.33 1.32 0.66 2 1 C1.5912359 3.92947605 1.20616501 6.53612873 0 9.25 C-1.50574365 13.39079503 -1.67735918 17.62736778 -2 22 C-2.33 22 -2.66 22 -3 22 C-3.55353075 6.07061503 -3.55353075 6.07061503 0 0 Z " fill="#91A0A2" transform="translate(57,84)"/>
<path d="M0 0 C8.91 0 17.82 0 27 0 C27 0.66 27 1.32 27 2 C26.25838623 1.98428955 25.51677246 1.9685791 24.75268555 1.95239258 C21.39770104 1.89009286 18.04283814 1.85102493 14.6875 1.8125 C13.52025391 1.78736328 12.35300781 1.76222656 11.15039062 1.73632812 C10.03212891 1.72666016 8.91386719 1.71699219 7.76171875 1.70703125 C6.73006592 1.6913208 5.69841309 1.67561035 4.63549805 1.65942383 C1.94622946 1.77122287 1.94622946 1.77122287 0.13989258 3.51831055 C-0.23627197 4.00726807 -0.61243652 4.49622559 -1 5 C-0.67 3.35 -0.34 1.7 0 0 Z " fill="#C1C0BD" transform="translate(103,247)"/>
<path d="M0 0 C1.2065625 0.0309375 1.2065625 0.0309375 2.4375 0.0625 C0.94009067 4.90705959 0.94009067 4.90705959 -0.5625 7.0625 C-4.25 8 -4.25 8 -7.5625 8.0625 C-3.0602518 0.07464029 -3.0602518 0.07464029 0 0 Z " fill="#AAC0C3" transform="translate(263.5625,195.9375)"/>
<path d="M0 0 C0.33 0.66 0.66 1.32 1 2 C2.65 2 4.3 2 6 2 C6.33 3.32 6.66 4.64 7 6 C4.625 6.625 4.625 6.625 2 7 C1.34 6.34 0.68 5.68 0 5 C-0.66 5.66 -1.32 6.32 -2 7 C-2.33 6.34 -2.66 5.68 -3 5 C-1.5625 2.375 -1.5625 2.375 0 0 Z " fill="#2B6684" transform="translate(89,150)"/>
<path d="M0 0 C0.33 0 0.66 0 1 0 C1 2.64 1 5.28 1 8 C1.66 8 2.32 8 3 8 C3.33 7.01 3.66 6.02 4 5 C4.66 5 5.32 5 6 5 C6.33 3.68 6.66 2.36 7 1 C7.67578125 2.765625 7.67578125 2.765625 8 5 C6.85546875 6.921875 6.85546875 6.921875 5.1875 8.75 C4.37345703 9.67039062 4.37345703 9.67039062 3.54296875 10.609375 C2 12 2 12 0 12 C0 8.04 0 4.08 0 0 Z " fill="#B7C0BE" transform="translate(127,116)"/>
<path d="M0 0 C3.60401481 -0.08701039 7.20776012 -0.14039388 10.8125 -0.1875 C12.34874023 -0.22520508 12.34874023 -0.22520508 13.91601562 -0.26367188 C15.39038086 -0.27817383 15.39038086 -0.27817383 16.89453125 -0.29296875 C18.25348511 -0.31653442 18.25348511 -0.31653442 19.63989258 -0.34057617 C22.42444206 0.06124927 23.27599535 0.83688562 25 3 C22.26771788 4.36614106 20.81039196 3.38172257 18.01904297 2.52050781 C14.57448659 1.63250368 11.10376116 1.53051742 7.5625 1.375 C6.46518555 1.31699219 6.46518555 1.31699219 5.34570312 1.2578125 C3.56416468 1.16466016 1.78211878 1.08129714 0 1 C0 0.67 0 0.34 0 0 Z " fill="#678F9B" transform="translate(90,54)"/>
<path d="M0 0 C2.56336254 0.11446272 5.12513445 0.24119501 7.6875 0.375 C8.40873047 0.4059375 9.12996094 0.436875 9.87304688 0.46875 C13.97210394 0.69335587 17.24368459 1.17740909 21 3 C21 3.33 21 3.66 21 4 C13.65081658 4.43230491 7.09784913 2.81774185 0 1 C0 0.67 0 0.34 0 0 Z " fill="#34647B" transform="translate(344,169)"/>
<path d="M0 0 C1.65 0 3.3 0 5 0 C5 2.31 5 4.62 5 7 C3.68 7.33 2.36 7.66 1 8 C0.67 5.36 0.34 2.72 0 0 Z " fill="#DBDDDC" transform="translate(244,202)"/>
<path d="M0 0 C6.460199 -0.36567164 6.460199 -0.36567164 8.9375 1.3125 C10 3 10 3 10 6 C5.16743695 5.58578031 3.17320782 3.53586014 0 0 Z " fill="#1C577C" transform="translate(374,177)"/>
<path d="M0 0 C1.7744761 2.66171415 2.85029181 4.91989066 4 7.875 C4.495 9.13957031 4.495 9.13957031 5 10.4296875 C5.33 11.27789062 5.66 12.12609375 6 13 C6.66507375 14.66730295 7.33127496 16.33415816 8 18 C6.140625 17.89453125 6.140625 17.89453125 4 17 C2.734375 14.19921875 2.734375 14.19921875 1.75 10.6875 C1.41484375 9.53636719 1.0796875 8.38523437 0.734375 7.19921875 C0 4 0 4 0 0 Z " fill="#61848D" transform="translate(54,106)"/>
<path d="M0 0 C0.93065133 2.60582371 1.14917407 3.64198224 0.0625 6.25 C-0.288125 6.8275 -0.63875 7.405 -1 8 C-1.66 8 -2.32 8 -3 8 C-3.0825 8.598125 -3.165 9.19625 -3.25 9.8125 C-4.20455872 12.5966296 -5.57132271 13.43311142 -8 15 C-8.66 14.67 -9.32 14.34 -10 14 C-9.44570312 13.40832031 -8.89140625 12.81664062 -8.3203125 12.20703125 C-7.23363281 11.02173828 -7.23363281 11.02173828 -6.125 9.8125 C-5.40570313 9.03519531 -4.68640625 8.25789063 -3.9453125 7.45703125 C-2.0182908 5.02310224 -0.98699889 2.92463354 0 0 Z " fill="#5E879B" transform="translate(136,116)"/>
<path d="M0 0 C0.33 0 0.66 0 1 0 C1 5.94 1 11.88 1 18 C0.01 18.33 -0.98 18.66 -2 19 C-2.06605515 16.62201472 -2.11979419 14.47119049 -1.53125 12.15625 C-0.92256961 9.6857237 -0.67077867 7.28273986 -0.4375 4.75 C-0.35371094 3.85796875 -0.26992188 2.9659375 -0.18359375 2.046875 C-0.12300781 1.37140625 -0.06242187 0.6959375 0 0 Z " fill="#26678A" transform="translate(338,396)"/>
<path d="M0 0 C2 4 2 4 2.5 6.1875 C2.665 6.785625 2.83 7.38375 3 8 C3.66 8.33 4.32 8.66 5 9 C5 9.99 5 10.98 5 12 C5.66 12.33 6.32 12.66 7 13 C5.02 13 3.04 13 1 13 C0.67 8.71 0.34 4.42 0 0 Z " fill="#2877A2" transform="translate(190,153)"/>
<path d="M0 0 C0.99 0.33 1.98 0.66 3 1 C2.33035714 9.16964286 2.33035714 9.16964286 -1 12 C-1.02687279 10.18757948 -1.04633715 8.37504767 -1.0625 6.5625 C-1.07410156 5.55316406 -1.08570313 4.54382813 -1.09765625 3.50390625 C-1 1 -1 1 0 0 Z " fill="#0F5576" transform="translate(259,271)"/>
<path d="M0 0 C-9.39473684 7 -9.39473684 7 -15 7 C-3.75168431 -1.87584216 -3.75168431 -1.87584216 0 0 Z " fill="#38647A" transform="translate(285,237)"/>
<path d="M0 0 C0.33 0.99 0.66 1.98 1 3 C-0.65 4.65 -2.3 6.3 -4 8 C-4.99 7.67 -5.98 7.34 -7 7 C-7 6.34 -7 5.68 -7 5 C-6.34 5 -5.68 5 -5 5 C-4.67 4.01 -4.34 3.02 -4 2 C-1.9375 0.8125 -1.9375 0.8125 0 0 Z " fill="#C4CDCD" transform="translate(260,202)"/>
<path d="M0 0 C0.99 0.66 1.98 1.32 3 2 C-0.80264136 5.34994596 -4.25086953 8.0571739 -9 10 C-9.66 9.67 -10.32 9.34 -11 9 C-6.47945205 5.23287671 -6.47945205 5.23287671 -3.8125 3.9375 C-1.65490148 3.00690197 -1.65490148 3.00690197 0 0 Z " fill="#93A0A1" transform="translate(124,128)"/>
<path d="M0 0 C-0.65226562 0.25394531 -1.30453125 0.50789063 -1.9765625 0.76953125 C-6.77043902 2.65738528 -11.44007102 4.60003738 -16 7 C-15.83203125 5.14453125 -15.83203125 5.14453125 -15 3 C-12.63671875 1.69921875 -12.63671875 1.69921875 -9.6875 0.6875 C-8.72199219 0.34074219 -7.75648437 -0.00601563 -6.76171875 -0.36328125 C-3.99028916 -1.00223885 -2.62899967 -0.96792149 0 0 Z " fill="#598295" transform="translate(87,56)"/>
<path d="M0 0 C0.33 0.66 0.66 1.32 1 2 C1.99 2.33 2.98 2.66 4 3 C3.34 3 2.68 3 2 3 C1.731875 3.61875 1.46375 4.2375 1.1875 4.875 C0 7 0 7 -3 9 C-3.26218749 5.85375007 -3.24754367 4.38162983 -1.5 1.6875 C-1.005 1.130625 -0.51 0.57375 0 0 Z " fill="#1B5779" transform="translate(269,245)"/>
<path d="M0 0 C1.65 0 3.3 0 5 0 C4.04867188 0.53560547 4.04867188 0.53560547 3.078125 1.08203125 C0.19761397 3.74054801 0.2062173 5.84767109 -0.25 9.6875 C-0.39953125 10.86699219 -0.5490625 12.04648437 -0.703125 13.26171875 C-0.80109375 14.16535156 -0.8990625 15.06898438 -1 16 C-1.33 16 -1.66 16 -2 16 C-2.2358396 10.22192976 -1.86783046 5.48675196 0 0 Z " fill="#2B6F92" transform="translate(16,371)"/>
<path d="M0 0 C0.33 0 0.66 0 1 0 C1 3.3 1 6.6 1 10 C0.01 10 -0.98 10 -2 10 C-1.85950482 8.52031676 -1.71245174 7.04125484 -1.5625 5.5625 C-1.48128906 4.73878906 -1.40007812 3.91507813 -1.31640625 3.06640625 C-1 1 -1 1 0 0 Z " fill="#D0DDE1" transform="translate(252,197)"/>
<path d="M0 0 C0.66 0.66 1.32 1.32 2 2 C0.85546875 3.51953125 0.85546875 3.51953125 -1 5 C-3.69921875 5.07421875 -3.69921875 5.07421875 -6.6875 4.6875 C-8.17830078 4.50767578 -8.17830078 4.50767578 -9.69921875 4.32421875 C-10.45847656 4.21722656 -11.21773437 4.11023438 -12 4 C-9.1004339 2.34123921 -7.08364791 1.7638784 -3.75 1.875 C-1.89375 1.936875 -1.89375 1.936875 0 2 C0 1.34 0 0.68 0 0 Z " fill="#10557E" transform="translate(254,169)"/>
<path d="M0 0 C3.465 1.485 3.465 1.485 7 3 C6.67 4.98 6.34 6.96 6 9 C2 4.25 2 4.25 2 2 C1.34 2 0.68 2 0 2 C0 1.34 0 0.68 0 0 Z " fill="#0D537B" transform="translate(401,201)"/>
<path d="M0 0 C2.875 0.1875 2.875 0.1875 6 1 C7.375 3.5625 7.375 3.5625 8 6 C4.08597051 4.73058503 2.20927127 3.48832306 0 0 Z " fill="#17526E" transform="translate(384,184)"/>
<path d="M0 0 C3.5625 1.25 3.5625 1.25 7 3 C7.33 3.99 7.66 4.98 8 6 C0.42857143 4.14285714 0.42857143 4.14285714 -2 1 C-1.34 0.67 -0.68 0.34 0 0 Z " fill="#59889E" transform="translate(117,57)"/>
<path d="M0 0 C3.44216672 2.6598561 3.99504674 5.90288286 5 10 C4.34 10 3.68 10 3 10 C3 9.34 3 8.68 3 8 C2.34 8 1.68 8 1 8 C0.67 5.36 0.34 2.72 0 0 Z " fill="#32647F" transform="translate(331,248)"/>
<path d="M0 0 C2.99324263 1.0975223 3.84610901 1.67682892 5.25 4.625 C5.4975 5.40875 5.745 6.1925 6 7 C4.125 6.6875 4.125 6.6875 2 6 C0 3 0 3 0 0 Z " fill="#A2AEAD" transform="translate(393,198)"/>
<path d="M0 0 C0.66 0.33 1.32 0.66 2 1 C1.01 1.33 0.02 1.66 -1 2 C-1.33 2.99 -1.66 3.98 -2 5 C-4.31 5.33 -6.62 5.66 -9 6 C-7.73295613 3.46591226 -6.56876843 3.06790028 -4.0625 1.8125 C-3.35222656 1.44769531 -2.64195312 1.08289063 -1.91015625 0.70703125 C-1.27980469 0.47371094 -0.64945312 0.24039063 0 0 Z " fill="#89A4AC" transform="translate(289,175)"/>
<path d="M0 0 C1.32 0 2.64 0 4 0 C4 1.32 4 2.64 4 4 C2.35 4.33 0.7 4.66 -1 5 C-0.67 3.35 -0.34 1.7 0 0 Z " fill="#2B6782" transform="translate(44,154)"/>
<path d="M0 0 C1.5625 1.6875 1.5625 1.6875 3 4 C2.6875 6.75 2.6875 6.75 2 9 C0.4375 7.3125 0.4375 7.3125 -1 5 C-0.6875 2.25 -0.6875 2.25 0 0 Z " fill="#2A77A2" transform="translate(201,157)"/>
<path d="M0 0 C0.66 0.33 1.32 0.66 2 1 C0 4 0 4 -2.1640625 4.51171875 C-2.97617188 4.56972656 -3.78828125 4.62773437 -4.625 4.6875 C-5.85089844 4.78611328 -5.85089844 4.78611328 -7.1015625 4.88671875 C-7.72804688 4.92410156 -8.35453125 4.96148437 -9 5 C-6.06626269 3.04417512 -3.21783702 1.43775696 0 0 Z " fill="#4F707F" transform="translate(118,135)"/>
<path d="M0 0 C0.66 0 1.32 0 2 0 C2 2.97 2 5.94 2 9 C1.34 9 0.68 9 0 9 C-0.87890625 2.84765625 -0.87890625 2.84765625 -1 1 C-0.67 0.67 -0.34 0.34 0 0 Z " fill="#29617F" transform="translate(125,132)"/>
<path d="M0 0 C2.88437779 1.29299694 4.87219421 2.65941363 7 5 C6.01 5.33 5.02 5.66 4 6 C4 5.34 4 4.68 4 4 C3.01 4 2.02 4 1 4 C0.67 2.68 0.34 1.36 0 0 Z " fill="#416A7B" transform="translate(63,127)"/>
<path d="M0 0 C0.99 0.33 1.98 0.66 3 1 C3 3.31 3 5.62 3 8 C2.01 7.67 1.02 7.34 0 7 C0 4.69 0 2.38 0 0 Z " fill="#275B7C" transform="translate(56,200)"/>
<path d="M0 0 C0.33 0 0.66 0 1 0 C1 2.31 1 4.62 1 7 C1.66 7 2.32 7 3 7 C2.67 8.32 2.34 9.64 2 11 C1.34 11 0.68 11 0 11 C0 7.37 0 3.74 0 0 Z " fill="#6C94A5" transform="translate(253,196)"/>
<path d="M0 0 C2.4375 0.8125 2.4375 0.8125 5 2 C5.33 2.99 5.66 3.98 6 5 C4.35 4.67 2.7 4.34 1 4 C0.67 2.68 0.34 1.36 0 0 Z " fill="#A0B1B3" transform="translate(368,176)"/>
</svg>
